<svg xmlns="http://www.w3.org/2000/svg" viewBox="0 0 400 200" fill="none" stroke="black" stroke-width="4" stroke-linecap="round" stroke-linejoin="round">
  <path d="M50,180 L350,180 L330,40 L70,40 Z"/>
  <path d="M80,180 L80,120 C80,110 90,100 100,100 C110,100 120,110 120,120 L120,180"/>
  <path d="M100,100 L100,70 C100,65 110,65 110,70 L110,100"/>
  <path d="M140,180 L140,120 C140,110 150,100 160,100 C170,100 180,110 180,120 L180,180"/>
  <path d="M160,100 L160,70 C160,65 170,65 170,70 L170,100"/>
  <path d="M220,180 L220,120 C220,110 230,100 240,100 C250,100 260,110 260,120 L260,180"/>
  <path d="M240,100 L240,70 C240,65 250,65 250,70 L250,100"/>
  <path d="M280,180 L280,120 C280,110 290,100 300,100 C310,100 320,110 320,120 L320,180"/>
  <path d="M300,100 L300,70 C300,65 310,65 310,70 L310,100"/>
  <path d="M185,180 L185,120 L215,120 L215,180 Z"/>
</svg>
