<svg xmlns="http://www.w3.org/2000/svg" viewBox="0 0 1200 400" fill="none" stroke="#b08c2a" stroke-opacity="0.12" stroke-width="1.5" stroke-linecap="round" stroke-linejoin="round">
  <path d="M0,380 Q300,320 600,360 T1200,340"/>
  <path d="M0,395 Q400,370 800,390 T1200,370"/>
  <path d="M150,360 L350,150 L550,360 Z"/>
  <path d="M350,150 L390,360"/>
  <path d="M420,360 L650,100 L880,360 Z"/>
  <path d="M650,100 L690,360"/>
  <path d="M820,360 L970,200 L1120,360 Z"/>
  <path d="M970,200 L1000,360"/>
  <g transform="translate(850, 240) scale(0.95)">
    <path d="M100,70 C100,50 120,35 140,35 C160,35 180,50 180,70 L185,100 C185,115 165,120 140,120 C115,120 95,115 95,100 Z" fill="#b08c2a" fill-opacity="0.02"/>
    <path d="M110,60 C110,60 125,50 140,50 C155,50 170,60 170,60"/>
    <path d="M100,70 L180,70"/>
    <path d="M95,100 C80,100 50,110 50,130 L50,160 L280,160 C290,160 300,150 300,130 C300,100 240,100 220,100 L185,100"/>
    <path d="M220,100 C230,120 250,130 280,130"/>
    <path d="M120,160 L120,135 C120,125 160,125 160,135 L160,160"/>
  </g>
</svg>
