<svg xmlns="http://www.w3.org/2000/svg" width="160" height="160" viewBox="0 0 120 120" fill="none" stroke="#d4af37" stroke-opacity="0.07" stroke-width="1.5">
  <!-- Repeating Hieroglyphs (Dark Mode Background) -->
  <g transform="translate(15, 15) scale(0.3)">
    <!-- Luxor Obelisk -->
    <path d="M20,360 L24,50 L30,20 L36,50 L40,360 Z M10,385 L50,385" stroke-width="8" />
  </g>
  <g transform="translate(75, 15) scale(0.3)">
    <!-- Eye of Horus -->
    <path d="M15,50 Q45,25 85,50 Q45,75 15,50 Z" stroke-width="6" />
    <circle cx="48" cy="50" r="10" fill="#d4af37" fill-opacity="0.07" />
  </g>
  <g transform="translate(15, 75) scale(0.3)">
    <!-- Pyramids -->
    <path d="M50,20 L15,75 L50,85 Z M50,20 L50,85 L85,75 Z" stroke-width="6" />
  </g>
  <g transform="translate(75, 75) scale(0.3)">
    <!-- Scarab -->
    <ellipse cx="50" cy="55" rx="20" ry="26" stroke-width="6" />
    <line x1="50" y1="29" x2="50" y2="81" stroke-width="6" />
    <path d="M29,48 C40,43 60,43 70,48" stroke-width="6" />
    <path d="M38,29 C38,20 62,20 62,29 Z" stroke-width="6" />
  </g>
</svg>
