<svg xmlns="http://www.w3.org/2000/svg" viewBox="0 0 160 240" fill="none" stroke="black" stroke-width="4" stroke-linecap="round" stroke-linejoin="round">
  <path d="M50,100 L110,60 C120,80 125,100 120,120 C110,120 95,120 85,115"/>
  <path d="M85,115 C83,122 88,126 88,128 C82,132 86,138 88,141 C83,145 84,150 82,154 C75,160 72,170 70,180 C75,195 80,210 85,220"/>
  <path d="M120,120 C122,140 125,160 130,185 C115,200 95,215 85,220"/>
  <circle cx="96" cy="122" r="3" fill="black"/>
  <path d="M82,200 Q105,195 128,200"/>
  <path d="M85,210 Q105,205 125,210"/>
</svg>
