<svg xmlns="http://www.w3.org/2000/svg" viewBox="0 0 100 100">
  <ellipse cx="50" cy="55" rx="20" ry="26" stroke="black" stroke-width="6" fill="none"/>
  <line x1="50" y1="29" x2="50" y2="81" stroke="black" stroke-width="6"/>
  <path d="M30,48 C40,43 60,43 70,48" stroke="black" stroke-width="6" fill="none"/>
  <path d="M38,29 C38,20 62,20 62,29 Z" stroke="black" stroke-width="6" fill="none"/>
  <path d="M44,17 C47,12 53,12 56,17" stroke="black" stroke-width="5" fill="none"/>
  <path d="M30,35 Q12,30 18,18 M28,55 Q10,55 14,68 M32,75 Q15,80 22,90" stroke="black" stroke-width="6" fill="none" stroke-linecap="round"/>
  <path d="M70,35 Q88,30 82,18 M72,55 Q90,55 86,68 M68,75 Q85,80 78,90" stroke="black" stroke-width="6" fill="none" stroke-linecap="round"/>
</svg>
